<?xml version="1.0" standalone="no"?><!DOCTYPE svg PUBLIC "-//W3C//DTD SVG 1.1//EN" "http://www.w3.org/Graphics/SVG/1.1/DTD/svg11.dtd"><svg t="1774112537205" class="icon" viewBox="0 0 1024 1024" version="1.1" xmlns="http://www.w3.org/2000/svg" p-id="7588" xmlns:xlink="http://www.w3.org/1999/xlink" width="128" height="128"><path d="M336.65 212.09q0-9.91 7.7-14.31 25.3-14.3 75.36-43.45 50.06-29.16 75.36-43.46 6.6-4.4 14.3 0 69.31 40.71 150.72 90.21 7.7 3.3 7.7 12.11v174.92q0 8.8-7.7 13.2l-151.82 89.11q-6.6 3.31-13.2 0l-151.82-89.11q-6.6-3.3-6.6-13.2V212.09zM84.71 622.44q0-11 7.7-15.4 25.31-14.3 75.36-43.45 50.06-29.16 75.36-43.46 6.61-3.3 14.31 0 69.31 40.7 151.82 90.21 6.6 4.4 6.6 13.2v173.83q0 9.9-6.6 13.2l-152.92 89.11q-6.6 4.4-13.21 0L91.31 810.57q-6.6-3.3-6.6-13.2V622.44z m465.37 16.51q0-9.91 7.7-14.31 25.3-14.3 75.36-43.45 50.06-29.16 75.36-43.46 7.7-3.3 14.3 0 69.31 40.71 151.82 90.21 6.6 3.3 6.6 12.11 0 176.02 1.1 174.92 0 9.9-7.7 13.2L722.8 917.28q-7.7 4.41-13.2 0l-152.92-89.11q-6.6-3.3-6.6-13.2V638.95zM0 565.24q0-12.11 9.9-17.61 37.41-22 112.22-67.11 74.81-45.1 112.21-67.11 9.9-6.6 9.9-17.6 0-237.63-1.1-236.53 0-11 8.81-16.5Q349.85 86.67 493.97 1.96q7.7-4.4 16.5 1.1 161.72 94.61 242.04 141.92 7.7 4.4 7.7 14.3v276.14q0 13.2 9.9 18.7l191.43 112.22q8.8 5.5 8.8 15.4v282.74q0 11-7.7 14.3-81.42 47.31-243.14 143.02-7.7 4.4-16.5 0-28.6-17.6-107.27-63.81-78.66-46.21-120.46-70.41-11-7.7-23.11 0-63.81 39.61-191.42 116.62-9.9 5.5-18.71 0Q165.02 956.89 8.8 863.38q-8.8-5.5-8.8-16.5V565.24z m923.03 44q0-8.8-7.7-13.2L723.9 483.82q-8.8-4.4-16.5 0-130.92 77.01-196.93 115.52-8.8 4.4-8.8 14.3v221.13q0 11 8.8 15.41 27.51 15.4 194.73 113.31 7.7 4.4 15.4 0 96.82-57.21 194.73-113.31 7.7-5.51 7.7-14.31V609.24zM49.51 819.37q0 8.8 6.6 13.2l188.12 114.42q6.61 4.4 14.31 0 24.2-15.4 189.22-114.42 5.5-3.3 5.5-11V591.64q0-8.8-6.6-12.1-125.41-75.91-188.12-114.42-7.7-4.4-14.31 0-31.9 18.7-94.06 56.66-62.16 37.95-94.06 56.66-6.6 4.4-6.6 13.2v227.73z m242.03-405.96q0 9.91 8.8 14.31 63.81 37.4 190.33 112.21 8.8 4.4 16.5 0 27.51-16.5 198.03-115.51 7.7-4.41 7.7-12.11V186.78q0-8.8-6.6-12.1-104.52-60.51-196.93-115.52-6.6-3.3-14.3 0-64.91 38.51-195.83 115.52-7.7 4.4-7.7 14.3v224.43z" fill="#1267ff" p-id="7589"></path></svg>